{"title":"The Mudge Boy (2003) DVD RIP Gay Intrest","uid":9942474,"size":1287853391,"categoryP":"video","categoryS":"movies","magnet":"?xt=urn:btih:4511c9a2eb52b94b904267b67575ca3e3c478a6e&amp;dn=The+Mudge+Boy+%282003%29+DVD+RIP+Gay+Intrest&amp;tr=udp%3A%2F%2Ftracker.openbittorrent.com%3A80&amp;tr=udp%3A%2F%2Fopen.demonii.com%3A1337&amp;tr=udp%3A%2F%2Ftracker.coppersurfer.tk%3A6969&amp;tr=udp%3A%2F%2Fexodus.desync.com%3A6969","seeders":7,"leechers":1,"uploader":"jmanwf","files":-1,"time":1397270522,"description":"Description\nThe Mudge Boy (2003) DVD RIP Inc.Directors Commentary\n\n\nFormat : MPEG-4\nFormat profile : Base Media / Version 2\nCodec ID : mp42\nFile size : 1.17 GiB\nDuration : 1h 32mn\nOverall bit rate mode : Variable\nOverall bit rate : 1 811 Kbps\nEncoded date : UTC 2014-01-14 11:09:09\nTagged date : UTC 2014-01-14 13:52:15\nWriting application : HandBrake 0.9.9 2013052900\n\nVideo\nID : 1\nFormat : AVC\nFormat/Info : Advanced Video Codec\nFormat profile : &lt;a class=&quot;__cf_email__&quot; href=&quot;/cdn-cgi/l/email-protection&quot; data-cfemail=&quot;7c311d15123c3048524c&quot;&gt;[email&amp;#160;protected]&lt;/a&gt;&lt;script cf-hash='f9e31' type=&quot;text/javascript&quot;&gt;\n/* &lt;![CDATA[ */!function(){try{var t=&quot;currentScript&quot;in document?document.currentScript:function(){for(var t=document.getElementsByTagName(&quot;script&quot;),e=t.length;e--;)if(t[e].getAttribute(&quot;cf-hash&quot;))return t[e]}();if(t&amp;&amp;t.previousSibling){var e,r,n,i,c=t.previousSibling,a=c.getAttribute(&quot;data-cfemail&quot;);if(a){for(e=&quot;&quot;,r=parseInt(a.substr(0,2),16),n=2;a.length-n;n+=2)i=parseInt(a.substr(n,2),16)^r,e+=String.fromCharCode(i);e=document.createTextNode(e),c.parentNode.replaceChild(e,c)}}}catch(u){}}();/* ]]&gt; */&lt;/script&gt;\nFormat settings, CABAC : Yes\nFormat settings, ReFrames : 8 frames\nCodec ID : avc1\nCodec ID/Info : Advanced Video Coding\nDuration : 1h 32mn\nBit rate : 1 612 Kbps\nWidth : 720 pixels\nHeight : 364 pixels\nDisplay aspect ratio : 16:9\nOriginal display aspect ratio : 16:9\nFrame rate mode : Constant\nFrame rate : 29.970 fps\nColor space : YUV\nChroma subsampling : 4:2:0\nBit depth : 8 bits\nScan type : Progressive\nBits/(Pixel*Frame) : 0.205\nStream size : 1.04 GiB (89%)\nWriting library : x264 core 130 r2273 b3065e6\ncrf_max=0.0 / nal_hrd=none / ip_ratio=1.40 / aq=1:1.00\nEncoded date : UTC 2014-01-14 11:09:09\nTagged date : UTC 2014-01-14 13:52:15\nColor primaries : BT.601 NTSC\nTransfer characteristics : BT.709\nMatrix coefficients : BT.601\n\nAudio #1\nID : 2\nFormat : AAC\nFormat/Info : Advanced Audio Codec\nFormat profile : LC\nCodec ID : 40\nDuration : 1h 32mn\nBit rate mode : Variable\nBit rate : 96.0 Kbps\nMaximum bit rate : 159 Kbps\nChannel(s) : 2 channels\nChannel positions : Front: L R\nSampling rate : 48.0 KHz\nCompression mode : Lossy\nStream size : 63.5 MiB (5%)\nLanguage : English\nEncoded date : UTC 2014-01-14 11:09:09\nTagged date : UTC 2014-01-14 13:52:14\n\n\nStoryline\n\nSensitive, somewhat effeminate farm-boy Duncan Mudge can barely cope with grim, since Ma's death even gloomier father Edgar's manly expectations, and seeks comfort in petting a chicken he associates with his late Ma. Macho mate Perry Foley, who has it physically even harder on his dad's farm, usually comforts Duncan and defends his 'wimpiness' to their cocky ruffian mates Travis, Scotty and Brent. But although clearly attracted to gentle gentile Ducan himself, the socially unacceptable suggestion of 'sissy' homosexuality makes Perry over-react and turn on his friend.","torrent":{"xt":"urn:btih:4511c9a2eb52b94b904267b67575ca3e3c478a6e","amp;dn":"The+Mudge+Boy+%282003%29+DVD+RIP+Gay+Intrest","amp;tr":["udp%3A%2F%2Ftracker.openbittorrent.com%3A80","udp%3A%2F%2Fopen.demonii.com%3A1337","udp%3A%2F%2Ftracker.coppersurfer.tk%3A6969","udp%3A%2F%2Fexodus.desync.com%3A6969"],"infoHash":"4511c9a2eb52b94b904267b67575ca3e3c478a6e","infoHashBuffer":{"type":"Buffer","data":[69,17,201,162,235,82,185,75,144,66,103,182,117,117,202,62,60,71,138,110]},"announce":[],"urlList":[]}}